#N canvas 0 38 1512 916 12;
#X obj 299 7 output~;
#X obj 7 7 metronome;
#X obj 7 49 s met;
#X obj 88 49 s met_reset;
#X obj 470 75 cnv 19 450 200 empty empty empty 20 100 0 12 #c6ffc7 #404040 0;
#N canvas 232 94 1164 760 kick 0;
#X obj 101 41 noise~;
#X obj 151 278 *~;
#X obj 299 139 bng 19 250 50 0 empty empty empty 0 -10 0 12 #fcfcfc #000000 #000000;
#X obj 367 199 bng 19 250 50 0 empty empty empty 0 -10 0 12 #fcfcfc #000000 #000000;
#X obj 299 108 delay 5;
#X msg 251 117 1 5;
#X obj 101 75 *~ 1;
#X obj 20 101 hip~ 8000;
#X obj 26 139 *~ 0.01;
#X obj 70 178 clip~ -0.9 0.9;
#X msg 299 177 0.25 50;
#X obj 101 141 *~ 20;
#X obj 261 255 line~;
#X obj 101 106 bp~ 150 20;
#X obj 248 62 bng 30 250 50 0 empty empty Kick\ Drum 0 -10 0 12 #c7c6ff #000000 #000000;
#X obj 247 16 inlet;
#X obj 147 341 outlet~;
#X obj 184 229 *~ 4;
#X msg 367 161 delay 30;
#X msg 367 233 0 100;
#X obj 184 206 osc~ 40;
#X obj 151 308 *~ 2;
#X connect 0 0 6 0;
#X connect 0 0 7 0;
#X connect 1 0 21 0;
#X connect 2 0 10 0;
#X connect 2 0 18 0;
#X connect 3 0 19 0;
#X connect 4 0 2 0;
#X connect 5 0 12 0;
#X connect 6 0 13 0;
#X connect 7 0 8 0;
#X connect 8 0 9 0;
#X connect 9 0 1 0;
#X connect 10 0 12 0;
#X connect 11 0 9 0;
#X connect 12 0 1 1;
#X connect 13 0 11 0;
#X connect 14 0 5 0;
#X connect 14 0 4 0;
#X connect 15 0 14 0;
#X connect 17 0 1 0;
#X connect 18 0 3 0;
#X connect 19 0 12 0;
#X connect 20 0 17 0;
#X connect 21 0 16 0;
#X restore 491 201 pd kick;
#X obj 491 141 sequencer-16;
#X obj 491 116 r met;
#X obj 792 118 r met_reset;
#X obj 11 75 cnv 19 450 200 empty empty empty 20 100 0 12 #ffe3c6 #404040 0;
#X obj 31 140 sequencer-16;
#X obj 31 115 r met;
#X obj 332 117 r met_reset;
#N canvas 2 40 1512 916 shaker 0;
#X obj 76 108 noise~;
#X obj 127 165 vline~;
#X obj 76 179 *~;
#X msg 189 129 1 5 0 \, 0 20 5;
#X obj 76 133 bp~ 5000 20;
#X obj 185 67 inlet;
#X obj 76 240 outlet~;
#X connect 0 0 4 0;
#X connect 1 0 2 1;
#X connect 2 0 6 0;
#X connect 3 0 1 0;
#X connect 4 0 2 0;
#X connect 5 0 3 0;
#X restore 31 199 pd shaker;
#X obj 9 284 cnv 19 900 200 empty empty empty 20 100 0 12 #ffc7c6 #404040 0;
#X obj 30 344 sequencer-16;
#X obj 30 319 r met;
#X obj 331 321 r met_reset;
#N canvas 401 318 450 300 snare 0;
#X obj 76 155 osc~;
#X obj 76 178 *~;
#X obj 107 178 vline~;
#X obj 76 131 vline~;
#X obj 11 264 outlet~;
#X obj 11 15 inlet;
#X obj 91 65 bng 19 250 50 0 empty empty empty 0 -10 0 12 #fcfcfc #000000 #000000;
#X obj 24 120 noise~;
#X obj 24 144 *~ 2;
#X msg 76 108 200 5 0 \, 100 125 5;
#X msg 114 155 1 5 0 \, 0.2 20 5 \, 0 100 50;
#X connect 0 0 1 0;
#X connect 1 0 4 0;
#X connect 2 0 1 1;
#X connect 3 0 0 0;
#X connect 5 0 6 0;
#X connect 6 0 9 0;
#X connect 6 0 10 0;
#X connect 7 0 8 0;
#X connect 8 0 1 0;
#X connect 9 0 3 0;
#X connect 10 0 2 0;
#X restore 34 408 pd snare;
#X obj 460 346 sequencer-16;
#X obj 460 321 r met;
#X obj 761 323 r met_reset;
#N canvas 786 318 450 300 goast_snare 0;
#X obj 76 155 osc~;
#X obj 76 178 *~;
#X obj 107 178 vline~;
#X obj 76 131 vline~;
#X obj 11 264 outlet~;
#X obj 11 15 inlet;
#X obj 91 65 bng 19 250 50 0 empty empty empty 0 -10 0 12 #fcfcfc #000000 #000000;
#X obj 24 120 noise~;
#X obj 24 144 *~ 2;
#X msg 76 108 200 5 0 \, 150 125 5;
#X msg 114 155 0.3 5 0 \, 0.2.5 20 5 \, 0 50 10;
#X connect 0 0 1 0;
#X connect 1 0 4 0;
#X connect 2 0 1 1;
#X connect 3 0 0 0;
#X connect 5 0 6 0;
#X connect 6 0 9 0;
#X connect 6 0 10 0;
#X connect 7 0 8 0;
#X connect 8 0 1 0;
#X connect 9 0 3 0;
#X connect 10 0 2 0;
#X restore 465 413 pd goast_snare;
#X obj 114 8 catch~ master_bus;
#X obj 31 223 throw~ master_bus;
#X obj 491 224 throw~ master_bus;
#X obj 32 452 throw~ master_bus;
#X obj 464 448 throw~ master_bus;
#X text 31 86 Shaker;
#X text 498 86 Kick;
#X text 34 292 Snares;
#X obj 553 13 vu 8 80 empty empty -1 -10 0 12 #404040 #000000 0 0;
#N canvas 329 161 625 417 vu 0;
#X obj 59 129 env~ 1024;
#X obj 161 111 abs~;
#X obj 161 213 snapshot~;
#X obj 161 256 rmstodb;
#X obj 161 21 inlet~;
#X obj 161 288 - 100;
#X obj 59 287 - 100;
#X obj 59 361 outlet;
#X obj 161 361 outlet;
#X text 344 307 Check the help file of env~ and slop~ for more details., f 31;
#X obj 239 89 expr 1000 / $f1;
#X floatatom 239 117 5 0 0 0 - - - 0;
#X obj 161 146 slop~ 0 0 0 0 1e+09;
#X obj 239 18 inlet;
#X floatatom 239 57 5 0 0 0 - - - 0;
#X text 359 89 convert to hz;
#X text 282 118 hz;
#X text 284 57 peak decay time in ms;
#X obj 59 171 t f b;
#X text 345 132 The env~ object is dedicated to RMS analysis. Its output is in dB (0-100 range \, pd style) but needs to be converted to dBFS (and we do that by simply subtracting 100)., f 31;
#X text 345 225 The slop~ object is used here for peak detection. We need to convert the output to dB with rmstodb and also subtract by 100 to convert it to dBFS., f 31;
#X connect 0 0 18 0;
#X connect 1 0 12 0;
#X connect 2 0 3 0;
#X connect 3 0 5 0;
#X connect 4 0 0 0;
#X connect 4 0 1 0;
#X connect 5 0 8 0;
#X connect 6 0 7 0;
#X connect 10 0 11 0;
#X connect 11 0 12 3;
#X connect 12 0 2 0;
#X connect 13 0 14 0;
#X connect 14 0 10 0;
#X connect 18 0 6 0;
#X connect 18 1 2 0;
#X restore 412 3 pd vu;
#X floatatom 460 2 6 0 1000 0 - decay - 0;
#X obj 253 9 *~ 0.2;
#X obj 564 13 vu 8 80 empty empty -1 -10 0 12 #404040 #000000 0 0;
#X connect 1 0 2 0;
#X connect 1 1 3 0;
#X connect 5 0 25 0;
#X connect 6 0 5 0;
#X connect 7 0 6 0;
#X connect 8 0 6 1;
#X connect 10 0 13 0;
#X connect 11 0 10 0;
#X connect 12 0 10 1;
#X connect 13 0 24 0;
#X connect 15 0 18 0;
#X connect 16 0 15 0;
#X connect 17 0 15 1;
#X connect 18 0 26 0;
#X connect 19 0 22 0;
#X connect 20 0 19 0;
#X connect 21 0 19 1;
#X connect 22 0 27 0;
#X connect 23 0 34 0;
#X connect 32 0 31 0;
#X connect 32 0 35 0;
#X connect 32 1 31 1;
#X connect 32 1 35 1;
#X connect 33 0 32 1;
#X connect 34 0 0 0;
#X connect 34 0 0 1;
#X connect 34 0 32 0;
#X coords 0 0 0.5 0.5 0 0 0;
