#N canvas 263 113 716 721 12;
#N canvas 556 593 450 278 (subpatch) 0;
#X array \$0-steps 16 float 3;
#A 0 4 0 2 10 5 10 2 0 2 10 4 0 5 10 6 10;
#X coords 0 6 16 0 200 140 1 0 0;
#X restore 397 34 graph;
#X text 369 197 0=K 1=s 2=h 3=ks 4=kh 5=sh 6ksh;
#X obj 374 267 array set \$0-steps;
#X msg 374 229 0 2 3 4 5 6 0 1 2 3 4 5 6 0 1 2;
#N canvas 748 144 450 324 counter 0;
#X obj 59 41 inlet;
#X obj 124 43 inlet;
#X obj 60 79 tgl 19 0 empty empty empty 0 -10 0 12 #c6ffc7 #000000 #000000 0 1;
#X floatatom 124 79 5 0 0 0 - - - 0;
#X obj 60 119 t f b;
#X msg 125 115 tempo \$1 permin;
#X obj 61 159 metro 0.25 120 permin;
#X text 170 79 BPM;
#X msg 93 186 0;
#X obj 62 215 f;
#X obj 62 244 % 16;
#X obj 62 272 outlet;
#X obj 100 214 + 1;
#X text 129 187 Reset;
#X connect 0 0 2 0;
#X connect 1 0 3 0;
#X connect 2 0 4 0;
#X connect 3 0 5 0;
#X connect 4 0 6 0;
#X connect 4 1 8 0;
#X connect 5 0 6 0;
#X connect 6 0 9 0;
#X connect 8 0 9 1;
#X connect 9 0 10 0;
#X connect 9 0 12 0;
#X connect 10 0 11 0;
#X connect 12 0 9 1;
#X restore 64 69 pd counter;
#X obj 64 33 tgl 19 0 empty empty empty 0 -10 0 12 #fcfcfc #000000 #000000 0 1;
#X floatatom 129 36 5 0 0 0 - - - 0;
#X obj 65 108 hradio 19 1 0 16 empty empty empty 0 -10 0 12 #fcfcfc #000000 #000000 0;
#X obj 66 163 array get \$0-steps;
#X floatatom 66 195 5 0 0 0 - - - 0;
#X obj 66 225 + 0.5;
#X obj 66 255 int;
#X floatatom 65 287 5 0 0 0 - - - 0;
#X obj 65 318 select 0 1 2 3 4 5 6;
#N canvas 718 76 450 300 kick 0;
#X obj 44 35 inlet;
#X obj 115 34 inlet;
#X obj 44 65 bng 19 250 50 0 empty empty empty 0 -10 0 12 #fcfcfc #000000 #000000;
#X obj 116 87 f;
#X obj 45 142 vline~;
#X msg 117 142 \$1 1 0 \, 0 100 1;
#X obj 45 172 osc~;
#X obj 117 172 vline~;
#X obj 45 200 *~;
#X obj 45 228 outlet~;
#X msg 45 113 150 \, 50 70 0;
#X connect 0 0 2 0;
#X connect 1 0 3 0;
#X connect 2 0 10 0;
#X connect 2 0 3 0;
#X connect 3 0 5 0;
#X connect 4 0 6 0;
#X connect 5 0 7 0;
#X connect 6 0 8 0;
#X connect 7 0 8 1;
#X connect 8 0 9 0;
#X connect 10 0 4 0;
#X restore 65 383 pd kick;
#N canvas 868 196 450 300 snare 0;
#X obj 195 25 inlet;
#X obj 254 25 inlet;
#X obj 196 56 f;
#X msg 197 86 \$1 1 0 \, 0 150 1;
#X obj 198 116 vline~;
#X obj 199 162 *~;
#X obj 41 69 noise~;
#X obj 41 99 lop~ 3000;
#X obj 41 129 hip~ 1000;
#X obj 90 188 *~ 0.5;
#X obj 91 235 *~;
#X obj 91 264 outlet~;
#X obj 90 158 osc~ 180;
#X connect 0 0 2 0;
#X connect 1 0 2 1;
#X connect 2 0 3 0;
#X connect 3 0 4 0;
#X connect 4 0 5 0;
#X connect 4 0 5 1;
#X connect 5 0 10 1;
#X connect 6 0 7 0;
#X connect 7 0 8 0;
#X connect 8 0 10 0;
#X connect 9 0 10 0;
#X connect 10 0 11 0;
#X connect 12 0 9 0;
#X restore 128 383 pd snare;
#N canvas 989 234 450 300 hats 0;
#X obj 147 17 inlet;
#X obj 194 16 inlet;
#X obj 147 46 bng 19 250 50 0 empty empty empty 0 -10 0 12 #fcfcfc #000000 #000000;
#X obj 147 76 f;
#X obj 219 105 t f b;
#X obj 239 140 random 10;
#X obj 239 168 / 20;
#X obj 238 196 + 0.7;
#X obj 220 223 *;
#X obj 30 77 noise~;
#X obj 30 106 hip~ 20000;
#X obj 61 181 *~;
#X msg 112 106 \$1 \, 0 40 1;
#X obj 112 134 vline~;
#X obj 30 136 hip~ 10000;
#X floatatom 194 49 5 0 0 0 - - - 0;
#X floatatom 266 235 5 0 0 0 - - - 0;
#X obj 63 237 outlet~;
#X connect 0 0 2 0;
#X connect 1 0 3 1;
#X connect 2 0 3 0;
#X connect 3 0 4 0;
#X connect 4 0 8 0;
#X connect 4 1 5 0;
#X connect 5 0 6 0;
#X connect 6 0 7 0;
#X connect 7 0 8 1;
#X connect 7 0 16 0;
#X connect 8 0 12 0;
#X connect 9 0 10 0;
#X connect 10 0 14 0;
#X connect 11 0 17 0;
#X connect 12 0 13 0;
#X connect 13 0 11 1;
#X connect 14 0 11 0;
#X connect 15 0 3 1;
#X restore 197 383 pd hats;
#X floatatom 111 286 5 0 0 0 - - - 0;
#X floatatom 179 286 5 0 0 0 - - - 0;
#X floatatom 242 286 5 0 0 0 - - - 0;
#X obj 128 430 +~;
#X obj 129 460 dac~;
#X msg 373 296 4 10 4 10 5 10 2 1 2 1 4 0 5 10 2 1;
#X obj 374 474 array set \$0-steps;
#X msg 373 323 4 0 2 10 5 10 2 0 2 10 4 0 5 10 6 10;
#X msg 374 348 4 10 2 10 5 10 2 2 2 10 4 10 5 0 2 2;
#X text 292 323 Kick Grove;
#X text 292 297 Amen Break;
#X text 306 349 Lay Back;
#X msg 127 135 1;
#X obj 121 193 trig;
#X connect 3 0 2 0;
#X connect 4 0 7 0;
#X connect 5 0 4 0;
#X connect 6 0 4 1;
#X connect 7 0 8 0;
#X connect 8 0 9 0;
#X connect 9 0 10 0;
#X connect 10 0 11 0;
#X connect 11 0 12 0;
#X connect 12 0 13 0;
#X connect 13 0 14 0;
#X connect 13 1 15 0;
#X connect 13 2 16 0;
#X connect 13 3 14 0;
#X connect 13 3 15 0;
#X connect 13 4 14 0;
#X connect 13 4 16 0;
#X connect 13 5 15 0;
#X connect 13 5 16 0;
#X connect 13 6 14 0;
#X connect 13 6 15 0;
#X connect 13 6 16 0;
#X connect 14 0 20 0;
#X connect 15 0 20 0;
#X connect 16 0 20 0;
#X connect 17 0 14 1;
#X connect 18 0 15 1;
#X connect 19 0 16 1;
#X connect 20 0 21 0;
#X connect 20 0 21 1;
#X connect 22 0 23 0;
#X connect 24 0 23 0;
#X connect 25 0 23 0;
#X connect 29 0 8 1;
#X connect 30 0 14 0;
#X connect 30 1 15 0;
#X connect 30 2 16 0;
