#N canvas 201 272 1061 550 12;
#X obj 79 173 noise~;
#X obj 79 209 *~ 0.5;
#X obj 172 59 bng 30 250 50 0 empty empty Snare 0 -10 0 12 #c7c6ff #000000 #000000;
#X obj 79 282 *~;
#X obj 221 137 bng 19 250 50 0 empty empty empty 0 -10 0 12 #fcfcfc #000000 #000000;
#X obj 289 197 bng 19 250 50 0 empty empty empty 0 -10 0 12 #fcfcfc #000000 #000000;
#X obj 79 312 *~ 1;
#X obj 80 340 dac~;
#X msg 289 159 delay 100;
#X msg 221 175 0.5 100;
#X msg 289 231 0 150;
#X obj 500 76 noise~;
#X obj 505 285 *~;
#X obj 653 146 bng 19 250 50 0 empty empty empty 0 -10 0 12 #fcfcfc #000000 #000000;
#X obj 721 206 bng 19 250 50 0 empty empty empty 0 -10 0 12 #fcfcfc #000000 #000000;
#X obj 505 315 *~ 1;
#X obj 506 343 dac~;
#X obj 653 115 delay 5;
#X msg 605 124 1 5;
#X obj 500 110 *~ 1;
#X obj 419 136 hip~ 8000;
#X obj 425 174 *~ 0.01;
#X obj 469 213 clip~ -0.9 0.9;
#X msg 653 184 0.25 50;
#X msg 721 168 delay 50;
#X msg 721 240 0 300;
#X obj 500 176 *~ 20;
#X obj 174 260 line~;
#X obj 615 262 line~;
#X obj 79 249 hip~ 1000;
#X msg 173 115 1 20;
#X obj 221 106 delay 20;
#X obj 500 141 bp~ 150 20;
#X obj 602 69 bng 30 250 50 0 empty empty Kick\ Drum 0 -10 0 12 #c7c6ff #000000 #000000;
#X connect 0 0 1 0;
#X connect 1 0 29 0;
#X connect 2 0 30 0;
#X connect 2 0 31 0;
#X connect 3 0 6 0;
#X connect 4 0 9 0;
#X connect 4 0 8 0;
#X connect 5 0 10 0;
#X connect 6 0 7 0;
#X connect 6 0 7 1;
#X connect 8 0 5 0;
#X connect 9 0 27 0;
#X connect 10 0 27 0;
#X connect 11 0 19 0;
#X connect 11 0 20 0;
#X connect 12 0 15 0;
#X connect 13 0 23 0;
#X connect 13 0 24 0;
#X connect 14 0 25 0;
#X connect 15 0 16 0;
#X connect 15 0 16 1;
#X connect 17 0 13 0;
#X connect 18 0 28 0;
#X connect 19 0 32 0;
#X connect 20 0 21 0;
#X connect 21 0 22 0;
#X connect 22 0 12 0;
#X connect 23 0 28 0;
#X connect 24 0 14 0;
#X connect 25 0 28 0;
#X connect 26 0 22 0;
#X connect 27 0 3 1;
#X connect 28 0 12 1;
#X connect 29 0 3 0;
#X connect 30 0 27 0;
#X connect 31 0 4 0;
#X connect 32 0 26 0;
#X connect 33 0 18 0;
#X connect 33 0 17 0;
