#N canvas 820 127 650 542 12;
#X obj 49 219 *~;
#X obj 82 218 *~;
#X floatatom 67 177 5 0 0 0 - - - 0;
#X obj 55 272 dac~;
#X obj 21 88 soundfiler;
#N canvas 0 22 450 278 (subpatch) 0;
#X array audioData1 262094 float 2;
#X coords 0 1 262094 -1 200 140 1;
#X restore 424 36 graph;
#N canvas 0 22 450 278 (subpatch) 0;
#X array audioData2 262094 float 2;
#X coords 0 1 262094 -1 200 140 1;
#X restore 417 211 graph;
#X msg 24 23 read -resize file_example.wav audioData1 audioData2;
#X obj 49 137 tabplay~ audioData1;
#X obj 127 88 bng 19 250 50 0 empty empty empty 0 -10 0 12 #fcfcfc #000000 #000000;
#X obj 197 136 tabplay~ audioData2;
#X msg 197 87 stop;
#X msg 258 91 10000 20000;
#X connect 0 0 3 0;
#X connect 1 0 3 1;
#X connect 2 0 0 1;
#X connect 2 0 1 1;
#X connect 7 0 4 0;
#X connect 8 0 0 0;
#X connect 9 0 8 0;
#X connect 9 0 2 0;
#X connect 9 0 10 0;
#X connect 10 0 1 0;
#X connect 11 0 8 0;
#X connect 11 0 10 0;
#X connect 12 0 8 0;
#X connect 12 0 10 0;
