#N canvas 251 37 1219 866 12;
#X obj 235 37 loadbang;
#X msg 235 76 375;
#X floatatom 235 112 5 0 0 0 - - - 0;
#X obj 204 141 metro;
#X obj 174 94 tgl 30 0 empty empty empty 0 -10 0 12 #c6ffc7 #000000 #000000 0 1;
#X obj 204 174 bng 19 250 50 0 empty empty empty 0 -10 0 12 #fcfcfc #000000 #000000;
#X obj 51 111 loadbang;
#X obj 143 141 sel 0;
#X obj 144 174 bng 19 250 50 0 empty empty Reset -45 10 0 12 #ffffff #000000 #000000;
#X msg 144 204 -0.1;
#X obj 204 237 int 1;
#X obj 291 262 + 1;
#X floatatom 204 269 5 0 0 0 - - - 0;
#X floatatom 204 331 5 0 0 0 - - - 0;
#X obj 204 302 % 8;
#X obj 205 404 bng 19 250 50 0 empty empty empty 0 -10 0 12 #fcfcfc #000000 #000000;
#X obj 388 670 receive kick;
#X obj 388 699 bng 19 250 50 0 empty empty empty 0 -10 0 12 #fcfcfc #000000 #000000;
#X obj 388 823 dac~;
#X obj 246 404 bng 19 250 50 0 empty empty empty 0 -10 0 12 #fcfcfc #000000 #000000;
#X obj 287 404 bng 19 250 50 0 empty empty empty 0 -10 0 12 #fcfcfc #000000 #000000;
#X obj 328 403 bng 19 250 50 0 empty empty empty 0 -10 0 12 #fcfcfc #000000 #000000;
#X obj 369 404 bng 19 250 50 0 empty empty empty 0 -10 0 12 #fcfcfc #000000 #000000;
#X obj 410 404 bng 19 250 50 0 empty empty empty 0 -10 0 12 #fcfcfc #000000 #000000;
#X obj 451 404 bng 19 250 50 0 empty empty empty 0 -10 0 12 #fcfcfc #000000 #000000;
#X obj 492 404 bng 19 250 50 0 empty empty empty 0 -10 0 12 #fcfcfc #000000 #000000;
#X obj 205 430 s one;
#X obj 246 430 s two;
#X obj 287 430 s thr;
#X obj 328 430 s fou;
#X obj 369 430 s fiv;
#X obj 410 430 s six;
#X obj 451 430 s sev;
#X obj 492 430 s eig;
#X obj 205 364 sel 1 2 3 4 5 6 7 8;
#X obj 643 563 bng 19 250 50 0 empty empty empty 0 -10 0 12 #fcfcfc #000000 #000000;
#X obj 643 493 bng 19 250 50 0 empty empty empty 0 -10 0 12 #fcfcfc #000000 #000000;
#X obj 665 487 tgl 25 0 empty empty empty 0 -10 0 12 #fcfcfc #000000 #000000 0 1;
#X obj 643 529 spigot;
#X obj 643 457 r one;
#X obj 698 563 bng 19 250 50 0 empty empty empty 0 -10 0 12 #fcfcfc #000000 #000000;
#X obj 698 493 bng 19 250 50 0 empty empty empty 0 -10 0 12 #fcfcfc #000000 #000000;
#X obj 720 487 tgl 25 0 empty empty empty 0 -10 0 12 #fcfcfc #000000 #000000 0 1;
#X obj 698 529 spigot;
#X obj 752 563 bng 19 250 50 0 empty empty empty 0 -10 0 12 #fcfcfc #000000 #000000;
#X obj 752 493 bng 19 250 50 0 empty empty empty 0 -10 0 12 #fcfcfc #000000 #000000;
#X obj 774 487 tgl 25 0 empty empty empty 0 -10 0 12 #fcfcfc #000000 #000000 0 1;
#X obj 752 529 spigot;
#X obj 807 563 bng 19 250 50 0 empty empty empty 0 -10 0 12 #fcfcfc #000000 #000000;
#X obj 807 493 bng 19 250 50 0 empty empty empty 0 -10 0 12 #fcfcfc #000000 #000000;
#X obj 829 487 tgl 25 0 empty empty empty 0 -10 0 12 #fcfcfc #000000 #000000 0 1;
#X obj 807 529 spigot;
#X obj 861 563 bng 19 250 50 0 empty empty empty 0 -10 0 12 #fcfcfc #000000 #000000;
#X obj 861 493 bng 19 250 50 0 empty empty empty 0 -10 0 12 #fcfcfc #000000 #000000;
#X obj 883 487 tgl 25 0 empty empty empty 0 -10 0 12 #fcfcfc #000000 #000000 0 1;
#X obj 861 529 spigot;
#X obj 916 563 bng 19 250 50 0 empty empty empty 0 -10 0 12 #fcfcfc #000000 #000000;
#X obj 916 493 bng 19 250 50 0 empty empty empty 0 -10 0 12 #fcfcfc #000000 #000000;
#X obj 938 486 tgl 25 0 empty empty empty 0 -10 0 12 #fcfcfc #000000 #000000 0 1;
#X obj 916 529 spigot;
#X obj 970 563 bng 19 250 50 0 empty empty empty 0 -10 0 12 #fcfcfc #000000 #000000;
#X obj 970 493 bng 19 250 50 0 empty empty empty 0 -10 0 12 #fcfcfc #000000 #000000;
#X obj 992 487 tgl 25 0 empty empty empty 0 -10 0 12 #fcfcfc #000000 #000000 0 1;
#X obj 970 529 spigot;
#X obj 1025 563 bng 19 250 50 0 empty empty empty 0 -10 0 12 #fcfcfc #000000 #000000;
#X obj 1025 493 bng 19 250 50 0 empty empty empty 0 -10 0 12 #fcfcfc #000000 #000000;
#X obj 1047 487 tgl 25 0 empty empty empty 0 -10 0 12 #fcfcfc #000000 #000000 0 1;
#X obj 1025 529 spigot;
#X obj 698 457 r two;
#X obj 752 457 r thr;
#X obj 807 457 r fou;
#X obj 861 457 r fiv;
#X obj 916 457 r six;
#X obj 970 457 r sev;
#X obj 1025 457 r eig;
#X obj 827 619 send snare;
#X obj 826 696 bng 19 250 50 0 empty empty empty 0 -10 0 12 #fcfcfc #000000 #000000;
#X obj 826 667 receive snare;
#X obj 827 786 *~ 0.09;
#N canvas 786 318 450 300 snare 1;
#X obj 76 155 osc~;
#X obj 76 178 *~;
#X obj 107 178 vline~;
#X obj 76 131 vline~;
#X obj 11 264 outlet~;
#X obj 11 15 inlet;
#X msg 114 155 0.5 5 0 \, 0.2 20 5 \, 0 100 25;
#X msg 76 108 1500 5 0 \, 500 125 5;
#X obj 91 65 bng 19 250 50 0 empty empty empty 0 -10 0 12 #fcfcfc #000000 #000000;
#X obj 24 120 noise~;
#X obj 24 144 *~ 2;
#X connect 0 0 1 0;
#X connect 1 0 4 0;
#X connect 2 0 1 1;
#X connect 3 0 0 0;
#X connect 5 0 8 0;
#X connect 6 0 2 0;
#X connect 7 0 3 0;
#X connect 8 0 7 0;
#X connect 8 0 6 0;
#X connect 9 0 10 0;
#X connect 10 0 1 0;
#X restore 826 724 pd snare;
#N canvas 63 100 450 300 kick_drum 0;
#X obj 33 106 readsf~;
#X msg 33 76 open files/02_minimal_kicks/min_kick_13_E.wav \, 1;
#X obj 33 135 *~ 0.2;
#X obj 33 28 inlet;
#X obj 33 202 outlet~;
#X obj 111 129 nbx 5 17 0 1 0 0 empty empty empty 0 -10 0 12 #00ff04 #000000 #000000 0 256;
#X connect 0 0 2 0;
#X connect 1 0 0 0;
#X connect 2 0 4 0;
#X connect 3 0 1 0;
#X connect 5 0 2 1;
#X coords 0 -1 1 1 85 60 1 100 100;
#X restore 387 736 pd kick_drum;
#N canvas 63 100 450 300 kick_drum 0;
#X obj 33 106 readsf~;
#X msg 33 76 open files/02_minimal_kicks/min_kick_13_E.wav \, 1;
#X obj 33 135 *~ 0.2;
#X obj 33 28 inlet;
#X obj 33 202 outlet~;
#X obj 111 129 nbx 5 17 0 1 0 0 empty empty empty 0 -10 0 12 #ffc7c6 #000000 #000000 0 256;
#X connect 0 0 2 0;
#X connect 1 0 0 0;
#X connect 2 0 4 0;
#X connect 3 0 1 0;
#X connect 5 0 2 1;
#X coords 0 -1 1 1 85 60 1 100 100;
#X restore 118 600 pd kick_drum;
#N canvas 0 37 1470 781 sequence_machine 0;
#X obj 601 541 bng 19 250 50 0 empty empty empty 0 -10 0 12 #fcfcfc #000000 #000000;
#X obj 601 471 bng 19 250 50 0 empty empty empty 0 -10 0 12 #fcfcfc #000000 #000000;
#X obj 107 128 tgl 15 0 empty empty empty 0 -10 0 12 #fcfcfc #000000 #000000 0 1;
#X obj 601 507 spigot;
#X obj 656 541 bng 19 250 50 0 empty empty empty 0 -10 0 12 #fcfcfc #000000 #000000;
#X obj 656 471 bng 19 250 50 0 empty empty empty 0 -10 0 12 #fcfcfc #000000 #000000;
#X obj 125 128 tgl 15 0 empty empty empty 0 -10 0 12 #fcfcfc #000000 #000000 0 1;
#X obj 656 507 spigot;
#X obj 710 541 bng 19 250 50 0 empty empty empty 0 -10 0 12 #fcfcfc #000000 #000000;
#X obj 710 471 bng 19 250 50 0 empty empty empty 0 -10 0 12 #fcfcfc #000000 #000000;
#X obj 144 128 tgl 15 0 empty empty empty 0 -10 0 12 #fcfcfc #000000 #000000 0 1;
#X obj 710 507 spigot;
#X obj 765 541 bng 19 250 50 0 empty empty empty 0 -10 0 12 #fcfcfc #000000 #000000;
#X obj 765 471 bng 19 250 50 0 empty empty empty 0 -10 0 12 #fcfcfc #000000 #000000;
#X obj 163 128 tgl 15 0 empty empty empty 0 -10 0 12 #fcfcfc #000000 #000000 0 1;
#X obj 765 507 spigot;
#X obj 819 541 bng 19 250 50 0 empty empty empty 0 -10 0 12 #fcfcfc #000000 #000000;
#X obj 819 471 bng 19 250 50 0 empty empty empty 0 -10 0 12 #fcfcfc #000000 #000000;
#X obj 182 128 tgl 15 0 empty empty empty 0 -10 0 12 #fcfcfc #000000 #000000 0 1;
#X obj 819 507 spigot;
#X obj 874 541 bng 19 250 50 0 empty empty empty 0 -10 0 12 #fcfcfc #000000 #000000;
#X obj 874 471 bng 19 250 50 0 empty empty empty 0 -10 0 12 #fcfcfc #000000 #000000;
#X obj 201 128 tgl 15 0 empty empty empty 0 -10 0 12 #fcfcfc #000000 #000000 0 1;
#X obj 874 507 spigot;
#X obj 928 541 bng 19 250 50 0 empty empty empty 0 -10 0 12 #fcfcfc #000000 #000000;
#X obj 928 471 bng 19 250 50 0 empty empty empty 0 -10 0 12 #fcfcfc #000000 #000000;
#X obj 220 128 tgl 15 0 empty empty empty 0 -10 0 12 #fcfcfc #000000 #000000 0 1;
#X obj 928 507 spigot;
#X obj 983 541 bng 19 250 50 0 empty empty empty 0 -10 0 12 #fcfcfc #000000 #000000;
#X obj 983 471 bng 19 250 50 0 empty empty empty 0 -10 0 12 #fcfcfc #000000 #000000;
#X obj 239 128 tgl 15 0 empty empty empty 0 -10 0 12 #fcfcfc #000000 #000000 0 1;
#X obj 983 507 spigot;
#X obj 721 183 bng 19 250 50 0 empty empty empty 0 -10 0 12 #fcfcfc #000000 #000000;
#X obj 588 152 loadbang;
#X obj 661 183 bng 19 250 50 0 empty empty Reset -45 10 0 12 #ffffff #000000 #000000;
#X obj 721 246 int 1;
#X obj 808 271 + 1;
#X floatatom 721 278 5 0 0 0 - - - 0;
#X floatatom 721 340 5 0 0 0 - - - 0;
#X obj 721 311 % 8;
#X obj 747 102 inlet;
#X obj 764 620 outlet;
#X obj 722 373 sel 0 1 2 3 4 5 6 7;
#X msg 661 213 0;
#X connect 0 0 41 0;
#X connect 1 0 3 0;
#X connect 1 0 34 0;
#X connect 2 0 3 1;
#X connect 3 0 0 0;
#X connect 4 0 41 0;
#X connect 5 0 7 0;
#X connect 6 0 7 1;
#X connect 7 0 4 0;
#X connect 8 0 41 0;
#X connect 9 0 11 0;
#X connect 10 0 11 1;
#X connect 11 0 8 0;
#X connect 12 0 41 0;
#X connect 13 0 15 0;
#X connect 14 0 15 1;
#X connect 15 0 12 0;
#X connect 16 0 41 0;
#X connect 17 0 19 0;
#X connect 18 0 19 1;
#X connect 19 0 16 0;
#X connect 20 0 41 0;
#X connect 21 0 23 0;
#X connect 22 0 23 1;
#X connect 23 0 20 0;
#X connect 24 0 41 0;
#X connect 25 0 27 0;
#X connect 26 0 27 1;
#X connect 27 0 24 0;
#X connect 28 0 41 0;
#X connect 29 0 31 0;
#X connect 30 0 31 1;
#X connect 31 0 28 0;
#X connect 32 0 35 0;
#X connect 33 0 34 0;
#X connect 34 0 43 0;
#X connect 35 0 36 0;
#X connect 35 0 37 0;
#X connect 36 0 35 1;
#X connect 37 0 39 0;
#X connect 38 0 42 0;
#X connect 39 0 38 0;
#X connect 40 0 32 0;
#X connect 42 0 1 0;
#X connect 42 1 5 0;
#X connect 42 2 9 0;
#X connect 42 3 13 0;
#X connect 42 4 17 0;
#X connect 42 5 21 0;
#X connect 42 6 25 0;
#X connect 42 7 29 0;
#X connect 43 0 35 0;
#X coords 0 -1 1 1 160 50 1 100 100;
#X restore 84 529 pd sequence_machine;
#N canvas 434 40 679 676 sequence_machine 0;
#X obj 97 383 bng 19 250 50 0 empty empty empty 0 -10 0 12 #fcfcfc #000000 #000000;
#X obj 97 313 bng 19 250 50 0 empty empty empty 0 -10 0 12 #fcfcfc #000000 #000000;
#X obj 107 128 tgl 15 0 empty empty empty 0 -10 0 12 #fcfcfc #000000 #000000 0 1;
#X obj 97 349 spigot;
#X obj 97 277 r one;
#X obj 152 383 bng 19 250 50 0 empty empty empty 0 -10 0 12 #fcfcfc #000000 #000000;
#X obj 152 313 bng 19 250 50 0 empty empty empty 0 -10 0 12 #fcfcfc #000000 #000000;
#X obj 125 128 tgl 15 0 empty empty empty 0 -10 0 12 #fcfcfc #000000 #000000 0 1;
#X obj 152 349 spigot;
#X obj 206 383 bng 19 250 50 0 empty empty empty 0 -10 0 12 #fcfcfc #000000 #000000;
#X obj 206 313 bng 19 250 50 0 empty empty empty 0 -10 0 12 #fcfcfc #000000 #000000;
#X obj 144 128 tgl 15 0 empty empty empty 0 -10 0 12 #fcfcfc #000000 #000000 0 1;
#X obj 206 349 spigot;
#X obj 261 383 bng 19 250 50 0 empty empty empty 0 -10 0 12 #fcfcfc #000000 #000000;
#X obj 261 313 bng 19 250 50 0 empty empty empty 0 -10 0 12 #fcfcfc #000000 #000000;
#X obj 163 128 tgl 15 0 empty empty empty 0 -10 0 12 #fcfcfc #000000 #000000 0 1;
#X obj 261 349 spigot;
#X obj 315 383 bng 19 250 50 0 empty empty empty 0 -10 0 12 #fcfcfc #000000 #000000;
#X obj 315 313 bng 19 250 50 0 empty empty empty 0 -10 0 12 #fcfcfc #000000 #000000;
#X obj 182 128 tgl 15 0 empty empty empty 0 -10 0 12 #fcfcfc #000000 #000000 0 1;
#X obj 315 349 spigot;
#X obj 370 383 bng 19 250 50 0 empty empty empty 0 -10 0 12 #fcfcfc #000000 #000000;
#X obj 370 313 bng 19 250 50 0 empty empty empty 0 -10 0 12 #fcfcfc #000000 #000000;
#X obj 201 128 tgl 15 0 empty empty empty 0 -10 0 12 #fcfcfc #000000 #000000 0 1;
#X obj 370 349 spigot;
#X obj 424 383 bng 19 250 50 0 empty empty empty 0 -10 0 12 #fcfcfc #000000 #000000;
#X obj 424 313 bng 19 250 50 0 empty empty empty 0 -10 0 12 #fcfcfc #000000 #000000;
#X obj 220 128 tgl 15 0 empty empty empty 0 -10 0 12 #fcfcfc #000000 #000000 0 1;
#X obj 424 349 spigot;
#X obj 479 383 bng 19 250 50 0 empty empty empty 0 -10 0 12 #fcfcfc #000000 #000000;
#X obj 479 313 bng 19 250 50 0 empty empty empty 0 -10 0 12 #fcfcfc #000000 #000000;
#X obj 239 128 tgl 15 0 empty empty empty 0 -10 0 12 #fcfcfc #000000 #000000 0 1;
#X obj 479 349 spigot;
#X obj 152 277 r two;
#X obj 206 277 r thr;
#X obj 261 277 r fou;
#X obj 315 277 r fiv;
#X obj 370 277 r six;
#X obj 424 277 r sev;
#X obj 479 277 r eig;
#X obj 297 535 s kick;
#X connect 0 0 40 0;
#X connect 1 0 3 0;
#X connect 2 0 3 1;
#X connect 3 0 0 0;
#X connect 4 0 1 0;
#X connect 5 0 40 0;
#X connect 6 0 8 0;
#X connect 7 0 8 1;
#X connect 8 0 5 0;
#X connect 9 0 40 0;
#X connect 10 0 12 0;
#X connect 11 0 12 1;
#X connect 12 0 9 0;
#X connect 13 0 40 0;
#X connect 14 0 16 0;
#X connect 15 0 16 1;
#X connect 16 0 13 0;
#X connect 17 0 40 0;
#X connect 18 0 20 0;
#X connect 19 0 20 1;
#X connect 20 0 17 0;
#X connect 21 0 40 0;
#X connect 22 0 24 0;
#X connect 23 0 24 1;
#X connect 24 0 21 0;
#X connect 25 0 40 0;
#X connect 26 0 28 0;
#X connect 27 0 28 1;
#X connect 28 0 25 0;
#X connect 29 0 40 0;
#X connect 30 0 32 0;
#X connect 31 0 32 1;
#X connect 32 0 29 0;
#X connect 33 0 6 0;
#X connect 34 0 10 0;
#X connect 35 0 14 0;
#X connect 36 0 18 0;
#X connect 37 0 22 0;
#X connect 38 0 26 0;
#X connect 39 0 30 0;
#X coords 0 -1 1 1 160 50 2 100 100;
#X restore 297 530 pd sequence_machine;
#N canvas 92 129 450 300 metronome 0;
#X obj 143 32 loadbang;
#X msg 143 71 375;
#X floatatom 143 133 5 0 0 0 - - - 0;
#X obj 105 171 metro;
#X obj 104 127 tgl 30 0 empty empty empty 0 -10 0 12 #c7c6ff #000000 #000000 0 1;
#X obj 42 210 outlet;
#X connect 0 0 1 0;
#X connect 1 0 2 0;
#X connect 2 0 3 1;
#X connect 3 0 5 0;
#X connect 4 0 3 0;
#X coords 0 -1 1 1 85 60 1 100 100;
#X restore 64 363 pd metronome;
#N canvas 237 274 450 300 (subpatch) 0;
#X obj 37 37 inlet;
#X restore 64 428 pd;
#X connect 0 0 1 0;
#X connect 1 0 2 0;
#X connect 2 0 3 1;
#X connect 3 0 5 0;
#X connect 4 0 3 0;
#X connect 4 0 7 0;
#X connect 5 0 10 0;
#X connect 6 0 8 0;
#X connect 7 0 8 0;
#X connect 8 0 9 0;
#X connect 9 0 10 0;
#X connect 10 0 11 0;
#X connect 10 0 12 0;
#X connect 11 0 10 1;
#X connect 12 0 14 0;
#X connect 13 0 34 0;
#X connect 14 0 13 0;
#X connect 15 0 26 0;
#X connect 16 0 17 0;
#X connect 17 0 80 0;
#X connect 19 0 27 0;
#X connect 20 0 28 0;
#X connect 21 0 29 0;
#X connect 22 0 30 0;
#X connect 23 0 31 0;
#X connect 24 0 32 0;
#X connect 25 0 33 0;
#X connect 34 0 15 0;
#X connect 34 1 19 0;
#X connect 34 2 20 0;
#X connect 34 3 21 0;
#X connect 34 4 22 0;
#X connect 34 5 23 0;
#X connect 34 6 24 0;
#X connect 34 8 25 0;
#X connect 35 0 75 0;
#X connect 36 0 38 0;
#X connect 37 0 38 1;
#X connect 38 0 35 0;
#X connect 39 0 36 0;
#X connect 40 0 75 0;
#X connect 41 0 43 0;
#X connect 42 0 43 1;
#X connect 43 0 40 0;
#X connect 44 0 75 0;
#X connect 45 0 47 0;
#X connect 46 0 47 1;
#X connect 47 0 44 0;
#X connect 48 0 75 0;
#X connect 49 0 51 0;
#X connect 50 0 51 1;
#X connect 51 0 48 0;
#X connect 52 0 75 0;
#X connect 53 0 55 0;
#X connect 54 0 55 1;
#X connect 55 0 52 0;
#X connect 56 0 75 0;
#X connect 57 0 59 0;
#X connect 58 0 59 1;
#X connect 59 0 56 0;
#X connect 60 0 75 0;
#X connect 61 0 63 0;
#X connect 62 0 63 1;
#X connect 63 0 60 0;
#X connect 64 0 75 0;
#X connect 65 0 67 0;
#X connect 66 0 67 1;
#X connect 67 0 64 0;
#X connect 68 0 41 0;
#X connect 69 0 45 0;
#X connect 70 0 49 0;
#X connect 71 0 53 0;
#X connect 72 0 57 0;
#X connect 73 0 61 0;
#X connect 74 0 65 0;
#X connect 76 0 79 0;
#X connect 77 0 76 0;
#X connect 78 0 18 0;
#X connect 78 0 18 1;
#X connect 79 0 78 0;
#X connect 80 0 18 0;
#X connect 80 0 18 1;
#X connect 81 0 18 0;
#X connect 81 0 18 1;
#X connect 82 0 81 0;
#X connect 84 0 82 0;
#X connect 84 0 85 0;
