#N canvas 412 219 608 588 12;
#X obj 24 104 dac~;
#X obj 24 19 bng 19 250 50 0 empty empty empty 0 -10 0 12 -262144 -1 -1;
#N canvas 786 318 450 300 snare 0;
#X obj 76 155 osc~;
#X obj 76 178 *~;
#X obj 107 178 vline~;
#X obj 76 131 vline~;
#X obj 11 264 outlet~;
#X obj 11 15 inlet;
#X msg 114 155 0.5 5 0 \, 0.2 20 5 \, 0 100 25;
#X msg 76 108 1500 5 0 \, 500 125 5;
#X obj 91 65 bng 19 250 50 0 empty empty empty 0 -10 0 12 -262144 -1 -1;
#X obj 24 120 noise~;
#X obj 24 144 *~ 2;
#X connect 0 0 1 0;
#X connect 1 0 4 0;
#X connect 2 0 1 1;
#X connect 3 0 0 0;
#X connect 5 0 8 0;
#X connect 6 0 2 0;
#X connect 7 0 3 0;
#X connect 8 0 7 0;
#X connect 8 0 6 0;
#X connect 9 0 10 0;
#X connect 10 0 1 0;
#X restore 25 62 pd snare;
#X connect 1 0 2 0;
#X connect 2 0 0 0;
#X connect 2 0 0 1;
