#N canvas 72 78 1137 810 12;
#X floatatom 46 42 5 0 0 0 - - - 0;
#X obj 45 316 output~;
#N canvas 610 288 864 406 osctable 0;
#N canvas 476 227 635 604 oscillator 0;
#X obj 132 11 inlet;
#X obj 132 34 *;
#X obj 132 57 +;
#X obj 36 235 outlet~;
#X obj 49 32 nbx 3 18 1 9 0 0 empty empty Corse 0 -8 0 11 #dfdfdf #000000 #000000 0 256;
#X obj 49 67 nbx 3 18 -64 64 0 0 empty empty Fine 0 -8 0 11 #dfdfdf #000000 #000000 0 256;
#X obj 23 34 vsl 16 82 0 1 0 0 empty empty Vol -2 -10 0 11 #dfdfdf #000000 #000000 0 1;
#X obj 37 205 *~;
#X obj 145 128 osc~;
#X obj 206 11 inlet~;
#X obj 145 105 +~;
#X connect 0 0 1 0;
#X connect 1 0 2 0;
#X connect 2 0 10 0;
#X connect 4 0 1 1;
#X connect 5 0 2 1;
#X connect 6 0 7 1;
#X connect 7 0 3 0;
#X connect 8 0 7 0;
#X connect 9 0 10 1;
#X connect 10 0 8 0;
#X coords 0 -1 1 1 92 120 2 10 10;
#X restore 18 12 pd oscillator;
#N canvas 775 137 635 604 oscillator 0;
#X obj 132 11 inlet;
#X obj 132 34 *;
#X obj 132 57 +;
#X obj 36 235 outlet~;
#X obj 49 32 nbx 3 18 1 9 0 0 empty empty Corse 0 -8 0 11 #dfdfdf #000000 #000000 0 256;
#X obj 49 67 nbx 3 18 -64 64 0 0 empty empty Fine 0 -8 0 11 #dfdfdf #000000 #000000 0 256;
#X obj 23 34 vsl 16 82 0 1 0 0 empty empty Vol -2 -10 0 11 #dfdfdf #000000 #000000 0 1;
#X obj 49 101 nbx 3 18 0 999 0 0 empty empty Mod 0 -8 0 11 #dfdfdf #000000 #000000 0 256;
#X obj 95 234 outlet~;
#X obj 37 205 *~;
#X obj 76 204 *~;
#X obj 145 128 osc~;
#X obj 206 11 inlet~;
#X obj 145 105 +~;
#X connect 0 0 1 0;
#X connect 1 0 2 0;
#X connect 2 0 13 0;
#X connect 4 0 1 1;
#X connect 5 0 2 1;
#X connect 6 0 9 1;
#X connect 7 0 10 1;
#X connect 9 0 3 0;
#X connect 10 0 8 0;
#X connect 11 0 9 0;
#X connect 11 0 10 0;
#X connect 12 0 13 1;
#X connect 13 0 11 0;
#X coords 0 -1 1 1 92 120 2 10 10;
#X restore 202 12 pd oscillator;
#N canvas 775 137 635 604 oscillator 0;
#X obj 132 11 inlet;
#X obj 132 34 *;
#X obj 132 57 +;
#X obj 36 235 outlet~;
#X obj 49 32 nbx 3 18 1 9 0 0 empty empty Corse 0 -8 0 11 #dfdfdf #000000 #000000 0 256;
#X obj 49 67 nbx 3 18 -64 64 0 0 empty empty Fine 0 -8 0 11 #dfdfdf #000000 #000000 0 256;
#X obj 23 34 vsl 16 82 0 1 0 0 empty empty Vol -2 -10 0 11 #dfdfdf #000000 #000000 0 1;
#X obj 49 101 nbx 3 18 0 999 0 0 empty empty Mod 0 -8 0 11 #dfdfdf #000000 #000000 0 256;
#X obj 95 234 outlet~;
#X obj 37 205 *~;
#X obj 76 204 *~;
#X obj 145 128 osc~;
#X obj 206 11 inlet~;
#X obj 145 105 +~;
#X connect 0 0 1 0;
#X connect 1 0 2 0;
#X connect 2 0 13 0;
#X connect 4 0 1 1;
#X connect 5 0 2 1;
#X connect 6 0 9 1;
#X connect 7 0 10 1;
#X connect 9 0 3 0;
#X connect 10 0 8 0;
#X connect 11 0 9 0;
#X connect 11 0 10 0;
#X connect 12 0 13 1;
#X connect 13 0 11 0;
#X coords 0 -1 1 1 92 120 2 10 10;
#X restore 294 12 pd oscillator;
#N canvas 775 137 635 604 oscillator 0;
#X obj 132 11 inlet;
#X obj 132 34 *;
#X obj 132 57 +;
#X obj 36 235 outlet~;
#X obj 49 32 nbx 3 18 1 9 0 0 empty empty Corse 0 -8 0 11 #dfdfdf #000000 #000000 0 256;
#X obj 49 67 nbx 3 18 -64 64 0 0 empty empty Fine 0 -8 0 11 #dfdfdf #000000 #000000 0 256;
#X obj 23 34 vsl 16 82 0 1 0 0 empty empty Vol -2 -10 0 11 #dfdfdf #000000 #000000 0 1;
#X obj 49 101 nbx 3 18 0 999 0 0 empty empty Mod 0 -8 0 11 #dfdfdf #000000 #000000 0 256;
#X obj 95 234 outlet~;
#X obj 37 205 *~;
#X obj 76 204 *~;
#X obj 145 128 osc~;
#X obj 206 11 inlet~;
#X obj 145 105 +~;
#X connect 0 0 1 0;
#X connect 1 0 2 0;
#X connect 2 0 13 0;
#X connect 4 0 1 1;
#X connect 5 0 2 1;
#X connect 6 0 9 1;
#X connect 7 0 10 1;
#X connect 9 0 3 0;
#X connect 10 0 8 0;
#X connect 11 0 9 0;
#X connect 11 0 10 0;
#X connect 12 0 13 1;
#X connect 13 0 11 0;
#X coords 0 -1 1 1 92 120 2 10 10;
#X restore 110 12 pd oscillator;
#X obj 38 172 inlet;
#X obj 153 176 outlet~;
#X connect 0 0 5 0;
#X connect 1 0 5 0;
#X connect 1 1 3 1;
#X connect 2 0 5 0;
#X connect 2 1 1 1;
#X connect 3 0 5 0;
#X connect 3 1 0 1;
#X connect 4 0 0 0;
#X connect 4 0 3 0;
#X connect 4 0 1 0;
#X connect 4 0 2 0;
#X coords 0 -1 1 1 370 122 2 17 11;
#X restore 39 77 pd osctable;
#X connect 0 0 2 0;
#X connect 2 0 1 0;
